<?xml version="1.0" encoding="UTF-8" standalone="no"?>
<svg
   xmlns:dc="http://purl.org/dc/elements/1.1/"
   xmlns:cc="http://creativecommons.org/ns#"
   xmlns:rdf="http://www.w3.org/1999/02/22-rdf-syntax-ns#"
   xmlns:svg="http://www.w3.org/2000/svg"
   xmlns="http://www.w3.org/2000/svg"
   width="64"
   height="64"
   viewBox="0 0 16.933333 16.933334"
   version="1.1"
   id="svg8">
  <defs
     id="defs2">
    <marker
       orient="auto"
       refY="0.0"
       refX="0.0"
       id="marker5022"
       style="overflow:visible">
      <path
         id="path5020"
         d="M 0.0,0.0 L 5.0,-5.0 L -12.5,0.0 L 5.0,5.0 L 0.0,0.0 z "
         style="fill-rule:evenodd;stroke:#000000;stroke-width:1.0pt"
         transform="scale(0.8) translate(12.5,0)" />
    </marker>
    <marker
       style="overflow:visible"
       id="marker3158"
       refX="0.0"
       refY="0.0"
       orient="auto">
      <path
         transform="scale(0.2)"
         style="fill-rule:evenodd;stroke:#ffffff;stroke-width:1pt;stroke-opacity:1;fill:#ffffff;fill-opacity:1"
         d="M 5.77,0.0 L -2.88,5.0 L -2.88,-5.0 L 5.77,0.0 z "
         id="path3156" />
    </marker>
    <marker
       style="overflow:visible"
       id="marker3082"
       refX="0.0"
       refY="0.0"
       orient="auto">
      <path
         transform="scale(0.2)"
         style="fill-rule:evenodd;stroke:#ffffff;stroke-width:1pt;stroke-opacity:1;fill:#ffffff;fill-opacity:1"
         d="M 5.77,0.0 L -2.88,5.0 L -2.88,-5.0 L 5.77,0.0 z "
         id="path3080" />
    </marker>
    <marker
       orient="auto"
       refY="0.0"
       refX="0.0"
       id="Arrow1Lstart"
       style="overflow:visible">
      <path
         id="path872"
         d="M 0.0,0.0 L 5.0,-5.0 L -12.5,0.0 L 5.0,5.0 L 0.0,0.0 z "
         style="fill-rule:evenodd;stroke:#ffffff;stroke-width:1pt;stroke-opacity:1;fill:#ffffff;fill-opacity:1"
         transform="scale(0.8) translate(12.5,0)" />
    </marker>
    <marker
       orient="auto"
       refY="0.0"
       refX="0.0"
       id="marker1670"
       style="overflow:visible">
      <path
         id="path1668"
         d="M 5.77,0.0 L -2.88,5.0 L -2.88,-5.0 L 5.77,0.0 z "
         style="fill-rule:evenodd;stroke:#ffffff;stroke-width:1pt;stroke-opacity:1;fill:#ffffff;fill-opacity:1"
         transform="scale(0.2)" />
    </marker>
    <marker
       orient="auto"
       refY="0.0"
       refX="0.0"
       id="Arrow1Send"
       style="overflow:visible;">
      <path
         id="path887"
         d="M 0.0,0.0 L 5.0,-5.0 L -12.5,0.0 L 5.0,5.0 L 0.0,0.0 z "
         style="fill-rule:evenodd;stroke:#ffffff;stroke-width:1pt;stroke-opacity:1;fill:#ffffff;fill-opacity:1"
         transform="scale(0.2) rotate(180) translate(6,0)" />
    </marker>
    <marker
       orient="auto"
       refY="0.0"
       refX="0.0"
       id="Arrow2Lend"
       style="overflow:visible;">
      <path
         id="path893"
         style="fill-rule:evenodd;stroke-width:0.625;stroke-linejoin:round;stroke:#ffffff;stroke-opacity:1;fill:#ffffff;fill-opacity:1"
         d="M 8.7185878,4.0337352 L -2.2072895,0.016013256 L 8.7185884,-4.0017078 C 6.9730900,-1.6296469 6.9831476,1.6157441 8.7185878,4.0337352 z "
         transform="scale(1.1) rotate(180) translate(1,0)" />
    </marker>
    <marker
       orient="auto"
       refY="0.0"
       refX="0.0"
       id="marker1288"
       style="overflow:visible;">
      <path
         id="path1286"
         style="fill-rule:evenodd;stroke-width:0.625;stroke-linejoin:round;stroke:#ffffff;stroke-opacity:1;fill:#ffffff;fill-opacity:1"
         d="M 8.7185878,4.0337352 L -2.2072895,0.016013256 L 8.7185884,-4.0017078 C 6.9730900,-1.6296469 6.9831476,1.6157441 8.7185878,4.0337352 z "
         transform="scale(0.3) rotate(180) translate(-2.3,0)" />
    </marker>
    <marker
       orient="auto"
       refY="0.0"
       refX="0.0"
       id="marker1248"
       style="overflow:visible;">
      <path
         id="path1246"
         style="fill-rule:evenodd;stroke-width:0.625;stroke-linejoin:round;stroke:#ffffff;stroke-opacity:1;fill:#ffffff;fill-opacity:1"
         d="M 8.7185878,4.0337352 L -2.2072895,0.016013256 L 8.7185884,-4.0017078 C 6.9730900,-1.6296469 6.9831476,1.6157441 8.7185878,4.0337352 z "
         transform="scale(0.3) rotate(180) translate(-2.3,0)" />
    </marker>
    <marker
       orient="auto"
       refY="0.0"
       refX="0.0"
       id="Arrow2Send"
       style="overflow:visible;">
      <path
         id="path905"
         style="fill-rule:evenodd;stroke-width:0.625;stroke-linejoin:round;stroke:#ffffff;stroke-opacity:1;fill:#ffffff;fill-opacity:1"
         d="M 8.7185878,4.0337352 L -2.2072895,0.016013256 L 8.7185884,-4.0017078 C 6.9730900,-1.6296469 6.9831476,1.6157441 8.7185878,4.0337352 z "
         transform="scale(0.3) rotate(180) translate(-2.3,0)" />
    </marker>
    <marker
       orient="auto"
       refY="0"
       refX="0"
       id="Arrow1Mend"
       style="overflow:visible">
      <path
         id="path4745"
         d="M 0,0 5,-5 -12.5,0 5,5 Z"
         style="fill:#ffffff;fill-opacity:1;fill-rule:evenodd;stroke:#ffffff;stroke-width:1.00000003pt;stroke-opacity:1"
         transform="matrix(-0.4,0,0,-0.4,-4,0)" />
    </marker>
    <marker
       orient="auto-start-reverse"
       refY="3"
       refX="5"
       id="ExperimentalArrow">
      <path
         id="path4989"
         d="M 10,3 0,6 V 0 Z"
         style="fill:context-stroke;stroke:#ffffff;stroke-opacity:1" />
    </marker>
  </defs>
  <metadata
     id="metadata5">
    <rdf:RDF>
      <cc:Work
         rdf:about="">
        <dc:format>image/svg+xml</dc:format>
        <dc:type
           rdf:resource="http://purl.org/dc/dcmitype/StillImage" />
        <dc:title></dc:title>
      </cc:Work>
    </rdf:RDF>
  </metadata>
  <g
     id="layer1"
     transform="matrix(0.92525966,0,0,0.92525966,0.63284189,-258.50339)"
     style="display:inline">
    <ellipse
       style="opacity:1;fill:none;fill-opacity:1;stroke:#d40000;stroke-width:2;stroke-linecap:round;stroke-linejoin:round;stroke-miterlimit:4;stroke-dasharray:none;stroke-opacity:1;paint-order:fill markers stroke"
       id="path867"
       cx="8.467207"
       cy="288.50882"
       rx="8.0681314"
       ry="8.0449142"
       clip-path="none" />
  </g>
  <g
     id="layer2"
     style="display:none">
    <g
       id="g4989">
      <g
         clip-path="none"
         id="g4885">
        <g
           id="g4998">
          <path
             style="color:#000000;font-style:normal;font-variant:normal;font-weight:normal;font-stretch:normal;font-size:medium;line-height:normal;font-family:sans-serif;font-variant-ligatures:normal;font-variant-position:normal;font-variant-caps:normal;font-variant-numeric:normal;font-variant-alternates:normal;font-feature-settings:normal;text-indent:0;text-align:start;text-decoration:none;text-decoration-line:none;text-decoration-style:solid;text-decoration-color:#000000;letter-spacing:normal;word-spacing:normal;text-transform:none;writing-mode:lr-tb;direction:ltr;text-orientation:mixed;dominant-baseline:auto;baseline-shift:baseline;text-anchor:start;white-space:normal;shape-padding:0;clip-rule:nonzero;display:inline;overflow:visible;visibility:visible;opacity:1;isolation:auto;mix-blend-mode:normal;color-interpolation:sRGB;color-interpolation-filters:linearRGB;solid-color:#000000;solid-opacity:1;vector-effect:none;fill:#ffffff;fill-opacity:1;fill-rule:evenodd;stroke:none;stroke-width:2.06375003;stroke-linecap:round;stroke-linejoin:bevel;stroke-miterlimit:4;stroke-dasharray:none;stroke-dashoffset:0;stroke-opacity:1;paint-order:stroke fill markers;color-rendering:auto;image-rendering:auto;shape-rendering:auto;text-rendering:auto;enable-background:accumulate"
             d="m 12.675781,4.1738281 a 1.0319782,1.0319782 0 0 0 -0.99414,0.8476563 C 11.104879,7.9566993 9.9470512,10.687939 8.0761719,13.261719 7.1434402,11.926547 6.0682806,10.645743 4.6328125,9.53125 a 1.032171,1.032171 0 1 0 -1.265625,1.630859 c 1.6887506,1.311142 2.9055965,2.812766 3.859375,4.466797 L 8.90625,15.78125 c 2.729231,-3.203116 4.091237,-6.7503617 4.800781,-10.3613281 a 1.0319782,1.0319782 0 0 0 -1.03125,-1.2460938 z"
             id="path1244" />
        </g>
      </g>
    </g>
  </g>
  <g
     transform="matrix(0.81760057,0,0,0.81760057,1.3240489,1.5193785)"
     id="layer3"
     style="display:inline">
    <path
       id="path3078"
       d="M 2.6864494,9.7175829 C 5.0677364,10.564087 7.5714913,13.087924 8.3212909,14.786677 11.000782,12.088568 12.606117,6.3646436 11.466845,2.8154685"
       style="fill:none;fill-rule:evenodd;stroke:#d40000;stroke-width:1.94979393;stroke-linecap:round;stroke-linejoin:round;stroke-miterlimit:4;stroke-dasharray:none;stroke-opacity:1" />
  </g>
</svg>
