<svg version="1" xmlns="http://www.w3.org/2000/svg" width="682.667" height="682.667" viewBox="0 0 512.000000 512.000000"><path d="M239.9.4c-.2.2-3.6.6-7.5.9-32.5 2.8-69.3 14.2-99.4 30.8-5.7 3.2-27.7 17.5-29.6 19.3-.6.6-2.9 2.4-5 4.1C67.1 79.7 39 116.4 23.1 154c-1.8 4.1-3.6 8.4-4.1 9.5-4.5 10-12 39.3-14.4 56.5-2 14.1-2.6 41.3-1.3 56.5 1.5 16.6 5.3 35.7 10.4 52.5 2.8 9.2 10 27.9 11.3 29.5.5.5.9 1.4 1 2 .1.5 1.4 3.5 2.9 6.5 30.3 60.9 83.8 107 149.1 128.6 12.3 4.1 33.4 9 42 9.9.8.1 4 .5 7 .8 12.5 1.6 16.1 1.8 29.5 1.8 17.2 0 27.6-.9 45-3.7 15.8-2.6 40.4-9.9 56.5-16.8 79.5-34.3 136.7-107.4 150.5-192.2 2.6-16.1 3-21.8 2.9-43.9-.1-29-3.5-50.1-12.3-77C473.5 96.1 410.3 35 329.7 10.6c-6.4-2-12.7-3.7-13.9-4-1.3-.2-5.9-1.1-10.3-1.9-4.4-.9-10.7-1.9-14-2.2-3.3-.4-6.4-.9-6.8-1.2-.9-.6-44.3-1.4-44.8-.9zm39.6 56.9c1.1.3 4.5.8 7.5 1.2 6.9.9 23.6 4.8 31.6 7.3 17.2 5.6 34.6 14.3 50.9 25.3 12.5 8.5 17.6 12.8 29.6 24.9 24.2 24.6 41.8 55.5 50.4 89 6.8 26.5 8 59.4 3 85.5-6 31.2-21.2 63.8-40.8 88-6.2 7.6-23.4 24.5-31.2 30.7-21 16.7-48.4 30.3-74 36.7-18.3 4.6-31.3 6-53 5.6-10.4-.2-19.9-.5-21-.8-1.1-.2-4-.8-6.5-1.2-2.5-.3-5.7-.8-7.1-1.1-5-.7-21.5-5.3-28.9-7.9-8.6-3.1-31.1-14-38.5-18.7-44.1-27.9-75.8-72.2-87.6-122.3-1.2-5-2.3-9.9-2.4-11-1.2-7.1-1.6-10-2.2-18-5-66.3 21.4-128 72.7-169.9 29.4-24.1 68.7-40.2 105-43.2 4.1-.4 7.6-.8 7.8-.9.5-.4 32.5.4 34.7.8z"/><path d="M321 90c-11.2 2.1-20 12.2-20 23 0 2.2 1.3 9.3 3 15.8 1.6 6.4 3.2 13.9 3.5 16.7.3 2.7 1 8.1 1.4 12 .9 7.7.7 42.8-.4 51.5-.3 3-1 8-1.5 11s-1.2 7.3-1.5 9.5c-1.2 9.2-4.9 25.2-9.1 40.1-8.8 31.2-22.3 62.2-37.7 86.9-8.9 14.3-7 14.3-17.8.7-23.1-29-61-61.8-89.9-77.9-12.8-7.1-15.4-8.4-25.6-12.8-17.7-7.5-26.8-7-35.8 2.2-7 7-8.6 16.7-4.5 26.3 2.8 6.5 6.9 10 16.5 14 18.3 7.5 32.5 15.8 49.9 28.9 9.8 7.4 12.5 9.6 23.4 19.6 20.8 19.1 39.4 42.5 49 61.5 4.2 8.2 6.2 10.4 12.5 13.5 6.1 3.1 14.2 3.3 20.1.6 8.1-3.7 24-21.8 39.4-44.8 3.3-5.1 6.1-9.4 6.1-9.6 0-.3 1.7-3.4 3.9-6.8 5.6-9.3 13.3-24.7 19.1-38.3 5.2-12.2 13.9-35.5 14.6-39.1.2-1.1.8-3.1 1.4-4.5 1-2.7 6.9-24.7 7.6-28.7.3-1.4 1.1-5.3 1.9-8.7.8-3.3 1.6-7.5 1.9-9.1 1.4-8 3.6-23.6 4-29 .3-3.3.9-8.7 1.2-12.1 1.3-13.3.7-45.2-1.1-55.4-.2-1.4-.7-4.8-1-7.5-.9-7.4-5.4-27.3-7.5-32.8-2.7-7.2-6.6-11.6-12.4-14.2-6-2.7-9.8-3.4-14.6-2.5z"/></svg>